<?xml version="1.0" encoding="UTF-8"?>
<svg xmlns="http://www.w3.org/2000/svg" width="1254" height="1254" viewBox="0 0 1254 1254" role="img" aria-label="iRelateDigital icon">
  <defs>
    <linearGradient id="brandGradient" x1="0" y1="0" x2="1254" y2="1254" gradientUnits="userSpaceOnUse">
      <stop offset="0%" stop-color="#034E63"/>
      <stop offset="48%" stop-color="#0D8C96"/>
      <stop offset="100%" stop-color="#61E8CE"/>
    </linearGradient>
  </defs>
  <path d="
    M634.00,1161.50 L583.00,1159.50 L534.00,1152.50 L488.00,1141.50 L443.00,1126.50 L380.00,1097.50 L343.00,1075.50 L306.00,1049.50 L265.00,1014.50 L226.50,975.00 L195.50,936.00 L168.50,895.00 L140.50,841.00 L125.50,804.00 L107.50,744.00 L98.50,698.00 L93.50,649.00 L93.50,586.00 L98.50,537.00 L111.50,477.00 L127.50,428.00 L146.50,384.00 L173.50,335.00 L208.50,285.00 L237.50,251.00 L275.00,214.50 L319.00,179.50 L374.00,144.50 L416.00,123.50 L469.00,103.50 L514.00,91.50 L560.00,83.50 L608.00,79.50 L664.00,80.50 L719.00,87.50 L771.00,99.50 L818.00,115.50 L874.00,141.50 L908.00,161.50 L950.00,191.50 L986.00,222.50 L1024.50,263.00 L1056.50,304.00 L1080.50,341.00 L1107.50,393.00 L1125.50,437.00 L1143.50,498.00 L1153.50,555.00 L1156.50,603.00 L1155.50,658.00 L1151.50,696.00 L1139.50,755.00 L1123.50,806.00 L1105.50,849.00 L1073.50,908.00 L1040.50,955.00 L1012.50,988.00 L970.00,1029.50 L926.00,1064.50 L889.00,1088.50 L835.00,1116.50 L771.00,1140.50 L723.00,1152.50 L683.00,1158.50 L634.00,1161.50 Z
    M644.50,1138.00 L692.00,1134.50 L735.00,1126.50 L792.00,1109.50 L833.00,1092.50 L875.00,1070.50 L923.00,1038.50 L968.00,1000.50 L1001.50,966.00 L1036.50,922.00 L1062.50,882.00 L1083.50,842.00 L1104.50,791.00 L1120.50,736.00 L1128.50,694.00 L1133.50,645.00 L1133.50,592.00 L1128.50,542.00 L1120.50,500.00 L1103.50,443.00 L1085.50,399.00 L1062.50,355.00 L1033.50,311.00 L999.50,269.00 L962.00,231.50 L924.00,200.50 L885.00,174.50 L834.00,147.50 L803.00,134.50 L760.00,120.50 L703.00,108.50 L666.00,104.50 L610.00,103.50 L553.00,108.50 L510.00,116.50 L456.00,132.50 L419.00,147.50 L380.00,167.50 L333.00,197.50 L294.00,228.50 L259.50,261.00 L219.50,308.00 L191.50,349.00 L166.50,395.00 L148.50,437.00 L133.50,483.00 L120.50,545.00 L115.50,599.00 L115.50,636.00 L119.50,684.00 L127.50,730.00 L140.50,778.00 L158.50,826.00 L178.50,867.00 L212.50,921.00 L250.50,968.00 L284.00,1001.50 L329.00,1038.50 L376.00,1069.50 L425.00,1094.50 L462.00,1109.50 L516.00,1125.50 L558.00,1133.50 L595.00,1137.50 L644.50,1138.00 Z
    M530.00,413.50 L526.00,412.50 L504.50,387.00 L489.00,373.50 L454.00,364.50 L449.50,357.00 L458.00,344.50 L400.00,317.50 L396.50,314.00 L396.50,308.00 L405.50,300.00 L391.00,291.50 L352.00,256.50 L342.50,247.00 L342.50,242.00 L347.00,237.50 L353.00,236.50 L404.00,240.50 L448.00,255.50 L478.00,275.50 L503.50,303.00 L516.50,324.00 L526.50,347.00 L534.50,378.00 L536.50,399.00 L535.50,410.00 L530.00,413.50 Z
    M520.50,384.00 L511.50,348.00 L499.50,323.00 L488.50,307.00 L471.00,288.50 L452.00,274.50 L426.00,261.50 L392.00,252.50 L365.50,250.00 L404.00,284.50 L430.50,294.00 L432.50,297.00 L431.50,303.00 L419.50,309.00 L472.00,336.50 L477.50,344.00 L470.00,354.50 L482.00,356.50 L498.00,363.50 L520.50,384.00 Z
    M639.00,425.50 L603.00,412.50 L550.00,419.50 L545.50,415.00 L545.50,410.00 L568.00,387.50 L604.00,364.50 L644.00,348.50 L679.00,341.50 L708.00,341.50 L747.00,350.50 L777.00,365.50 L800.50,385.00 L800.50,390.00 L796.00,394.50 L790.00,395.50 L737.00,400.50 L721.00,400.50 L713.00,397.50 L716.50,409.00 L711.00,414.50 L647.00,408.50 L646.50,420.00 L639.00,425.50 Z
    M631.50,408.00 L631.50,400.00 L637.00,394.50 L698.00,399.50 L693.50,389.00 L698.00,380.50 L706.00,380.50 L724.00,387.50 L776.50,382.00 L750.00,366.50 L727.00,358.50 L709.00,355.50 L680.00,355.50 L649.00,361.50 L626.00,369.50 L596.00,384.50 L571.50,402.00 L608.00,399.50 L631.50,408.00 Z
    M256.00,480.50 L247.50,477.00 L247.50,471.00 L260.50,452.00 L278.00,434.50 L303.00,416.50 L326.00,404.50 L366.00,391.50 L403.00,386.50 L450.00,389.50 L492.00,402.50 L509.00,411.50 L517.50,419.00 L517.50,425.00 L514.00,428.50 L464.00,437.50 L449.00,445.50 L433.00,458.50 L423.50,456.00 L420.00,444.50 L354.00,472.50 L344.50,470.00 L343.00,459.50 L330.00,467.50 L256.00,480.50 Z
    M272.50,463.00 L326.00,454.50 L352.00,437.50 L360.50,440.00 L362.50,444.00 L361.00,454.50 L425.00,428.50 L434.00,429.50 L438.00,437.50 L455.00,426.50 L493.50,418.00 L464.00,406.50 L432.00,400.50 L398.00,400.50 L371.00,404.50 L346.00,411.50 L317.00,424.50 L288.00,444.50 L269.50,463.00 L272.50,463.00 Z
    M704.00,625.50 L698.00,624.50 L692.50,619.00 L652.50,571.00 L648.00,560.50 L638.00,568.50 L631.50,564.00 L601.00,507.50 L591.00,514.50 L585.00,513.50 L581.50,510.00 L576.50,486.00 L569.50,471.00 L538.50,439.00 L537.50,435.00 L542.00,428.50 L570.00,429.50 L608.00,441.50 L642.00,460.50 L672.50,489.00 L688.50,511.00 L698.50,531.00 L707.50,558.00 L711.50,600.00 L708.50,622.00 L704.00,625.50 Z
    M419.00,889.50 L413.00,889.50 L409.50,886.00 L398.50,855.00 L389.50,816.00 L385.50,785.00 L385.50,715.00 L395.50,652.00 L417.50,583.00 L445.50,527.00 L461.50,502.00 L486.50,470.00 L510.00,446.50 L526.00,436.50 L528.50,444.00 L492.50,518.00 L471.50,573.00 L457.50,625.00 L451.50,661.00 L449.50,681.00 L450.50,744.00 L458.50,794.00 L477.50,852.00 L472.00,859.50 L467.00,858.50 L463.50,854.00 L444.50,795.00 L436.50,749.00 L434.50,690.00 L438.50,648.00 L449.50,595.00 L467.50,539.00 L488.00,490.50 L459.50,532.00 L439.50,569.00 L422.50,611.00 L409.50,656.00 L399.50,723.00 L399.50,778.00 L407.50,834.00 L422.50,881.00 L422.50,886.00 L419.00,889.50 Z
    M697.50,600.00 L696.50,575.00 L689.50,546.00 L677.50,520.00 L659.50,495.00 L640.00,476.50 L616.00,460.50 L594.00,450.50 L562.00,442.50 L583.50,468.00 L590.50,485.00 L592.50,497.00 L602.00,491.50 L610.50,495.00 L638.00,546.50 L644.00,534.50 L653.00,534.50 L663.50,563.00 L691.50,596.00 L697.50,600.00 Z
    M652.00,1018.50 L605.00,1017.50 L547.00,1006.50 L513.00,994.50 L486.00,981.50 L462.00,967.50 L434.50,947.00 L524.00,909.50 L577.00,928.50 L613.00,934.50 L648.00,934.50 L677.00,930.50 L705.00,922.50 L732.00,910.50 L759.00,893.50 L787.00,869.50 L807.50,847.00 L826.50,821.00 L844.50,788.00 L853.50,766.00 L864.50,729.00 L870.00,698.50 L744.00,765.50 L605.00,835.50 L380.00,944.50 L303.50,978.00 L618.00,792.50 L675.00,756.50 L771.00,690.50 L876.00,608.50 L926.00,564.50 L967.50,523.00 L960.00,520.50 L920.00,517.50 L919.00,514.50 L1025.00,447.50 L1026.50,456.00 L1008.50,572.00 L1006.00,574.50 L1002.50,571.00 L979.00,533.50 L952.50,693.00 L939.50,754.00 L917.50,820.00 L886.50,878.00 L861.50,911.00 L839.00,934.50 L812.00,957.50 L779.00,979.50 L724.00,1004.50 L685.00,1014.50 L652.00,1018.50 Z
  " fill="url(#brandGradient)" fill-rule="evenodd"/>
</svg>
